<?xml version="1.0" standalone="no"?><!DOCTYPE svg PUBLIC "-//W3C//DTD SVG 1.1//EN" "http://www.w3.org/Graphics/SVG/1.1/DTD/svg11.dtd"><svg t="1716651262716" class="icon" viewBox="0 0 1024 1024" version="1.1" xmlns="http://www.w3.org/2000/svg" p-id="18586" xmlns:xlink="http://www.w3.org/1999/xlink" width="200" height="200"><path d="M837.7 145.3h-0.4c-14.2 0-28.1 4-40.1 11.5L330.7 448c-35.3 22.6-45.7 69.5-23.1 104.9 5.9 9.3 13.8 17.2 23.1 23.1l466.6 291.2c35.5 22.3 82.4 11.5 104.7-24 7.5-12 11.5-25.8 11.6-40v-582c0-41.9-34-75.9-75.9-75.9zM196.1 201.2c2.2-26-16.8-49.1-42.7-51.9-26 2.8-44.9 25.8-42.7 51.8v621.7c-2.2 26 16.7 49 42.7 51.8 26-2.8 44.9-25.8 42.7-51.8V201.2z" fill="#1afa29" p-id="18587"></path></svg>